# xmcd
#
# Track frame offsets:
#	150
#	17849
#	31799
#	45487
#	56523
#	71150
#	85060
#	98711
#	115700
#
# Disc length: 1729 seconds
#
# Revision: 1
# Processed by: cddbd v1.5.2PL0 Copyright (c) Steve Scherf et al.
# Submitted via: audiograbber 1.83.01
#
DISCID=6706bf09
DTITLE=Billy Dee - Memory Hall Of Fame
DYEAR=2012
DGENRE=Country
TTITLE0=Memory Hall Of Fame
TTITLE1=May Your Heart (Rest In Pieces)
TTITLE2=Only Time Will Tell
TTITLE3=Loved On Look
TTITLE4=Slowly Going Out Of Her Mind
TTITLE5=Not Tonight (I've Got A Heartache)
TTITLE6=Angel Eyes
TTITLE7=Home Is Where The Hurt Is
TTITLE8=The Key To My Heart (Belongs To You)
EXTD=
EXTT0=
EXTT1=
EXTT2=
EXTT3=
EXTT4=
EXTT5=
EXTT6=
EXTT7=
EXTT8=
PLAYORDER=
